<svg xmlns="http://www.w3.org/2000/svg" width="128" height="128" viewBox="0 0 128 128" role="img" aria-label="BN Script">
  <rect width="128" height="128" rx="24" fill="#111827"/>
  <path d="M24 28h80v72H24z" fill="#1f2937"/>
  <path d="M34 45h22c10 0 16 5 16 13 0 5-3 9-8 11 6 2 10 7 10 14 0 9-7 15-18 15H34V45zm14 12v8h7c3 0 5-2 5-4s-2-4-5-4h-7zm0 19v10h8c4 0 6-2 6-5s-2-5-6-5h-8z" fill="#f9fafb"/>
  <path d="M80 45h14v53H82L63 69v29H49V45h12l19 29V45z" fill="#38bdf8"/>
  <path d="M25 101h78" stroke="#f59e0b" stroke-width="6" stroke-linecap="round"/>
</svg>
